<?xml version="1.0" encoding="UTF-8" standalone="no"?>
<!DOCTYPE svg PUBLIC "-//W3C//DTD SVG 1.1//EN" "http://www.w3.org/Graphics/SVG/1.1/DTD/svg11.dtd">
<svg width="100%" height="100%" viewBox="0 0 640 224" version="1.1" xmlns="http://www.w3.org/2000/svg" xmlns:xlink="http://www.w3.org/1999/xlink" xml:space="preserve" xmlns:serif="http://www.serif.com/" style="fill-rule:evenodd;clip-rule:evenodd;stroke-linejoin:round;stroke-miterlimit:1.41421;">
    <g id="画板1" transform="matrix(1,0,0,1,0,-41)">
        <rect x="0" y="41" width="640" height="224" style="fill:none;"/>
        <g transform="matrix(0.999175,0,-0.131675,0.999175,-91.8359,-64.9941)">
            <path d="M232.128,202.238L232.128,131.678L238.08,131.678L238.08,167.102C246.912,157.822 253.472,149.406 257.76,141.854C260.256,137.566 261.536,134.174 261.6,131.678L267.84,131.678C267.84,134.43 266.4,138.302 263.52,143.294C260.768,148.094 257.248,153.182 252.96,158.558C263.392,180.318 268.608,194.878 268.608,202.238L262.656,202.238C262.656,195.518 258.048,182.622 248.832,163.55C245.568,167.262 241.984,171.134 238.08,175.166L238.08,202.238L232.128,202.238Z" style="fill:rgb(211,54,130);fill-rule:nonzero;"/>
            <path d="M297.984,203.006C294.144,203.006 290.816,202.206 288,200.606C285.44,199.134 283.456,197.118 282.048,194.558C280.256,191.55 279.36,187.87 279.36,183.518L279.36,150.398C279.36,146.046 280.256,142.366 282.048,139.358C283.456,136.798 285.44,134.782 288,133.31C290.816,131.71 294.144,130.91 297.984,130.91C301.824,130.91 305.12,131.71 307.872,133.31C310.432,134.782 312.448,136.798 313.92,139.358C315.2,141.534 316,143.934 316.32,146.558L310.464,147.614C310.208,145.63 309.6,143.806 308.64,142.142C307.616,140.286 306.208,138.846 304.416,137.822C302.624,136.798 300.48,136.286 297.984,136.286C295.488,136.286 293.312,136.798 291.456,137.822C289.728,138.846 288.352,140.286 287.328,142.142C285.984,144.382 285.312,147.134 285.312,150.398L285.312,183.518C285.312,186.782 285.984,189.534 287.328,191.774C288.352,193.63 289.728,195.07 291.456,196.094C293.312,197.118 295.488,197.63 297.984,197.63C300.48,197.63 302.624,197.118 304.416,196.094C306.208,195.07 307.616,193.63 308.64,191.774C309.6,190.11 310.208,188.286 310.464,186.302L316.32,187.358C316,189.982 315.2,192.382 313.92,194.558C312.448,197.118 310.432,199.134 307.872,200.606C305.12,202.206 301.824,203.006 297.984,203.006Z" style="fill:rgb(211,54,130);fill-rule:nonzero;"/>
            <path d="M345.696,203.006C341.536,203.006 338.016,202.174 335.136,200.51C332.832,199.166 330.976,197.342 329.568,195.038C328.288,192.734 327.648,190.334 327.648,187.838C327.648,187.71 327.648,187.55 327.648,187.358L333.6,186.686C333.6,186.75 333.568,186.91 333.504,187.166L333.504,187.454C333.568,189.182 334.016,190.782 334.848,192.254C335.744,193.79 336.992,195.006 338.592,195.902C340.512,197.054 342.88,197.63 345.696,197.63C348.256,197.63 350.464,197.086 352.32,195.998C353.984,195.102 355.296,193.822 356.256,192.158C357.344,190.238 357.888,188.11 357.888,185.774C357.888,183.438 357.248,181.214 355.968,179.102C354.368,176.286 351.296,173.534 346.752,170.846C345.984,170.398 345.344,170.046 344.832,169.79C344.32,169.534 343.616,169.15 342.72,168.638C336.96,165.246 332.992,161.694 330.816,157.982C329.024,154.846 328.128,151.598 328.128,148.238C328.128,144.878 328.928,141.822 330.528,139.07C331.936,136.638 333.856,134.718 336.288,133.31C339.04,131.71 342.368,130.91 346.272,130.91C350.432,130.91 353.952,131.742 356.832,133.406C359.136,134.75 360.992,136.574 362.4,138.878C363.68,141.182 364.32,143.582 364.32,146.078C364.32,146.206 364.32,146.366 364.32,146.558L358.368,147.23C358.368,147.166 358.4,147.006 358.464,146.75L358.464,146.462C358.4,144.734 357.952,143.134 357.12,141.662C356.224,140.126 354.976,138.91 353.376,138.014C351.456,136.862 349.088,136.286 346.272,136.286C343.712,136.286 341.504,136.83 339.648,137.918C337.984,138.814 336.672,140.094 335.712,141.758C334.624,143.678 334.08,145.806 334.08,148.142C334.08,150.478 334.72,152.702 336,154.814C337.6,157.63 340.672,160.382 345.216,163.07C345.984,163.518 346.624,163.87 347.136,164.126C347.648,164.382 348.352,164.766 349.248,165.278C355.008,168.67 358.976,172.222 361.152,175.934C362.944,179.07 363.84,182.318 363.84,185.678C363.84,189.038 363.04,192.094 361.44,194.846C360.032,197.278 358.112,199.198 355.68,200.606C352.928,202.206 349.6,203.006 345.696,203.006Z" style="fill:rgb(42,161,152);fill-rule:nonzero;"/>
            <path d="M379.2,202.238L379.2,131.678L385.152,131.678L385.152,196.862L412.608,196.862L412.608,202.238L379.2,202.238Z" style="fill:rgb(108,113,196);fill-rule:nonzero;"/>
            <path d="M249.984,305.438C248.64,305.438 247.488,305.15 246.528,304.574C245.696,304.126 245.024,303.454 244.512,302.558C243.936,301.598 243.68,300.446 243.744,299.102C243.68,297.822 243.936,296.702 244.512,295.742C245.024,294.846 245.696,294.174 246.528,293.726C247.488,293.15 248.64,292.862 249.984,292.862C251.328,292.862 252.48,293.15 253.44,293.726C254.272,294.174 254.944,294.846 255.456,295.742C255.968,296.638 256.256,297.758 256.32,299.102C256.256,300.51 255.968,301.662 255.456,302.558C254.944,303.454 254.272,304.126 253.44,304.574C252.48,305.15 251.328,305.438 249.984,305.438Z" style="fill:rgb(108,113,196);fill-rule:nonzero;"/>
            <path d="M284.544,304.67L284.544,299.294L295.008,299.294L295.008,239.486L284.544,239.486L284.544,234.11L311.424,234.11L311.424,239.486L300.96,239.486L300.96,299.294L311.424,299.294L311.424,304.67L284.544,304.67Z" style="fill:rgb(108,113,196);fill-rule:nonzero;"/>
            <path d="M328.128,304.67L328.128,234.11L336.768,234.11L357.888,295.262L357.888,234.11L363.84,234.11L363.84,304.67L355.2,304.67L334.08,243.518L334.08,304.67L328.128,304.67Z" style="fill:rgb(108,113,196);fill-rule:nonzero;"/>
            <path d="M376.128,304.67L376.128,234.11L382.08,234.11L382.08,269.534C390.912,260.254 397.472,251.838 401.76,244.286C404.256,239.998 405.536,236.606 405.6,234.11L411.84,234.11C411.84,236.862 410.4,240.734 407.52,245.726C404.768,250.526 401.248,255.614 396.96,260.99C407.392,282.75 412.608,297.31 412.608,304.67L406.656,304.67C406.656,297.95 402.048,285.054 392.832,265.982C389.568,269.694 385.984,273.566 382.08,277.598L382.08,304.67L376.128,304.67Z" style="fill:rgb(108,113,196);fill-rule:nonzero;"/>
        </g>
        <g transform="matrix(1.27139,0,-0.166587,1.27139,-6.37433,-29.5432)">
            <path d="M334.851,140.95L337.587,137.926C325.923,126.91 321.171,117.262 320.163,100.486L320.163,96.094L316.275,96.094L316.275,101.134C316.131,115.39 312.243,125.326 297.627,137.926L300.291,141.022C310.227,132.31 315.843,124.75 318.363,115.462C321.027,124.966 326.211,132.886 334.851,140.95ZM284.883,97.39L292.083,97.39L292.083,123.598L283.803,126.766L285.171,130.51L304.611,122.95L303.315,119.206L296.115,122.014L296.115,97.39L302.955,97.39L302.955,93.43L296.115,93.43L296.115,75.286L292.083,75.286L292.083,93.43L284.883,93.43L284.883,97.39ZM329.883,104.302L335.787,90.478L335.787,86.518L313.683,86.518C314.835,83.206 315.843,79.75 316.851,76.006L313.035,75.07C310.155,85.87 306.915,94.51 302.235,103.15L305.691,105.022C308.067,100.558 310.227,95.734 312.243,90.478L331.395,90.478L326.211,102.79L329.883,104.302Z" style="fill:rgb(211,54,130);fill-rule:nonzero;"/>
            <path d="M364.731,138.214L393.459,138.214L393.459,97.678L364.731,97.678L364.731,138.214ZM346.155,132.814L359.763,132.814L359.763,81.478L346.155,81.478L346.155,132.814ZM355.947,129.142L349.827,129.142L349.827,85.15L355.947,85.15L355.947,129.142ZM383.595,93.718L387.483,93.718L387.483,86.878L396.267,86.878L396.267,83.134L387.483,83.134L387.483,74.998L383.595,74.998L383.595,83.134L374.595,83.134L374.595,74.998L370.707,74.998L370.707,83.134L362.427,83.134L362.427,86.878L370.707,86.878L370.707,93.718L374.595,93.718L374.595,86.878L383.595,86.878L383.595,93.718ZM381.003,134.326L381.003,119.278L389.643,119.278L389.643,134.326L381.003,134.326ZM368.619,134.326L368.619,119.278L377.187,119.278L377.187,134.326L368.619,134.326ZM389.643,101.566L389.643,115.534L381.003,115.534L381.003,101.566L389.643,101.566ZM368.619,101.566L377.187,101.566L377.187,115.534L368.619,115.534L368.619,101.566Z" style="fill:rgb(211,54,130);fill-rule:nonzero;"/>
            <path d="M307.995,185.23L333.771,185.23L333.771,163.846L307.995,163.846L307.995,185.23ZM287.331,169.822C288.699,166.942 289.923,163.99 291.003,161.038L294.099,161.038L294.099,175.15L284.523,175.15L284.523,178.966L294.027,178.966C293.523,190.198 290.787,198.478 284.019,210.142L287.331,212.158C291.651,204.742 294.531,198.406 296.187,191.71L302.883,201.574L305.979,199.27L297.699,186.958L297.051,187.462C297.483,184.798 297.771,181.99 297.915,178.966L305.763,178.966L305.763,175.15L297.987,175.15L297.987,161.038L304.971,161.038L304.971,157.15L292.299,157.15C293.379,153.91 294.243,150.742 294.963,147.862L291.147,147.07C289.635,153.262 287.259,160.966 283.803,168.238L287.331,169.822ZM311.883,181.486L311.883,167.59L329.955,167.59L329.955,181.486L311.883,181.486ZM304.683,209.35L337.155,209.35L337.155,205.462L325.491,205.462L332.331,188.83L328.803,187.246L321.315,205.462L304.683,205.462L304.683,209.35ZM306.267,155.854L335.283,155.854L335.283,151.966L306.267,151.966L306.267,155.854ZM315.267,202.582L318.795,201.07L312.891,187.39L309.363,188.974L315.267,202.582Z" style="fill:rgb(42,161,152);fill-rule:nonzero;"/>
            <path d="M354.435,198.838L361.779,182.494L367.323,194.806L368.763,194.158L367.107,197.758L370.203,199.27L377.619,182.782L385.539,199.702L388.635,198.19L379.491,178.678L387.411,161.038L384.243,159.67L377.547,174.502L372.075,162.766L370.275,163.63L371.643,160.606L368.475,159.238L361.779,174.07L355.155,159.238L351.987,160.606L359.907,178.318L351.339,197.326L354.435,198.838ZM347.307,211.51L351.195,211.51L351.195,154.918L388.779,154.918L388.779,205.75C388.779,207.046 388.347,207.55 386.691,207.55L379.707,207.55L380.787,211.438L388.563,211.438C391.515,211.438 392.667,210.286 392.667,207.694L392.667,151.03L347.307,151.03L347.307,211.51ZM363.651,178.318L369.483,165.358L375.675,178.678L369.771,191.854L363.651,178.318Z" style="fill:rgb(42,161,152);fill-rule:nonzero;"/>
            <path d="M418.875,208.846L455.019,208.846L455.019,204.886L443.211,204.886L443.211,174.43L453.219,174.43L453.219,170.398L443.211,170.398L443.211,147.214L439.395,147.214L439.395,204.886L430.827,204.886L430.827,161.326L426.939,161.326L426.939,204.886L418.875,204.886L418.875,208.846ZM404.475,170.47L411.603,170.47L411.603,196.966L402.747,200.062L403.971,203.806L423.627,197.038L422.403,193.222L415.563,195.598L415.563,170.47L422.691,170.47L422.691,166.51L415.563,166.51L415.563,147.286L411.603,147.286L411.603,166.51L404.475,166.51L404.475,170.47Z" style="fill:rgb(42,161,152);fill-rule:nonzero;"/>
        </g>
    </g>
</svg>
